<svg xmlns="http://www.w3.org/2000/svg" width="512" height="512" viewBox="0 0 512 512" version="1.1"><path d="M 208.959 1.549 C 207.910 2.814, 202.229 45.475, 202.042 53.500 C 202.004 55.092, 200.312 56.090, 193.747 58.392 C 189.211 59.982, 181.141 63.296, 175.814 65.756 L 166.128 70.228 146.697 54.720 C 136.009 46.191, 126.335 38.715, 125.198 38.106 C 119.563 35.090, 119.235 35.343, 86.787 67.728 C 56.572 97.886, 56 98.532, 56.011 102.478 C 56.020 106.166, 57.386 108.217, 72.435 127.154 L 88.849 147.808 85.036 155.654 C 82.938 159.969, 79.737 167.550, 77.923 172.500 C 76.109 177.450, 74.298 181.888, 73.899 182.363 C 73.501 182.837, 61.895 184.504, 48.109 186.066 C 34.324 187.628, 22.158 189.380, 21.074 189.961 C 15.964 192.695, 16 192.357, 16 238.088 C 16 279.399, 16.063 280.811, 18.026 283.306 C 19.140 284.723, 20.828 286.110, 21.776 286.389 C 22.724 286.668, 34.075 288.065, 47 289.493 C 59.925 290.921, 71.419 292.280, 72.543 292.512 C 74.084 292.831, 75.152 294.719, 76.898 300.217 C 79.223 307.541, 84.380 319.377, 86.302 321.805 C 87.104 322.817, 88.756 321.701, 93.668 316.834 C 97.151 313.382, 100 311.107, 100 311.779 C 100 312.450, 100.399 313, 100.887 313 C 101.375 313, 100.082 309.063, 98.013 304.250 C 95.945 299.438, 93.080 291.641, 91.647 286.924 C 90.214 282.207, 88.143 277.534, 87.044 276.540 C 85.458 275.105, 80.031 274.142, 60.773 271.879 C 47.423 270.310, 36.163 269.020, 35.750 269.013 C 35.337 269.006, 35 255.070, 35 238.045 L 35 207.091 38.250 206.539 C 40.038 206.235, 49.825 205.077, 60 203.966 C 70.175 202.855, 79.850 201.689, 81.500 201.375 C 87.449 200.242, 88.489 198.766, 92.898 185.199 C 95.214 178.070, 99.785 166.944, 103.055 160.475 C 106.552 153.556, 108.995 147.433, 108.988 145.606 C 108.978 143.115, 105.915 138.641, 93.509 123 L 78.043 103.500 99.763 81.750 C 111.709 69.787, 121.712 60.002, 121.991 60.003 C 122.271 60.005, 128.800 65.012, 136.500 71.129 C 156.890 87.329, 161.994 91, 164.127 91 C 165.176 91, 171.891 88.114, 179.049 84.588 C 186.207 81.061, 197.252 76.498, 203.593 74.449 C 209.934 72.399, 215.994 69.997, 217.060 69.111 C 219.433 67.139, 220.137 63.353, 223.080 36.736 L 225.376 15.972 256.438 16.236 L 287.500 16.500 290.291 41 C 292.387 59.396, 293.516 66.098, 294.824 67.899 C 296.079 69.628, 299.769 71.338, 308.033 74.020 C 314.340 76.066, 322.650 79.146, 326.500 80.863 C 330.350 82.581, 332.600 83.293, 331.500 82.446 C 329.561 80.953, 329.702 80.709, 336.097 74.495 L 342.695 68.084 333.597 64.106 C 328.594 61.918, 321.462 59.136, 317.750 57.923 C 314.038 56.711, 310.991 55.219, 310.980 54.609 C 310.852 47.550, 304.955 2.651, 304.005 1.506 C 302.925 0.204, 296.481 0, 256.500 0 C 215.951 0, 210.086 0.191, 208.959 1.549 M 241 102.526 C 240.175 102.688, 236.125 103.360, 232 104.020 C 222.418 105.554, 207.769 110.203, 197.337 115.021 C 144.926 139.224, 112.352 195.824, 117.786 253.250 C 118.797 263.941, 121.658 278.407, 123.670 283 C 124.032 283.825, 124.366 284.800, 124.414 285.167 C 124.461 285.533, 124.837 286.096, 125.250 286.417 C 125.662 286.738, 125.761 286.686, 125.469 286.303 C 125.178 285.919, 128.293 282.207, 132.392 278.053 L 139.844 270.500 138.279 263 C 136.026 252.208, 136.103 228.946, 138.428 218 C 152.150 153.388, 211.497 112.293, 276.223 122.584 L 286.184 124.167 293.889 116.669 L 301.595 109.171 294.547 107.105 C 283.060 103.738, 269.446 102, 255.500 102.120 C 248.350 102.182, 241.825 102.364, 241 102.526 M 240.500 163.680 C 221.311 167.979, 203.192 180.205, 192.116 196.325 C 185.720 205.633, 178.280 224.942, 179.195 229.858 C 179.396 230.942, 191.047 219.863, 213.484 197.250 C 247.901 162.563, 248.432 161.903, 240.500 163.680" stroke="none" fill="#c2205d" fill-rule="evenodd"/><path d="M 382.310 42.170 C 375.420 47.400, 365.918 55.008, 365 56.029 C 364.725 56.334, 360.813 59.415, 356.306 62.874 C 351.800 66.333, 347.963 69.612, 347.779 70.162 C 347.570 70.790, 346.422 70.694, 344.683 69.901 C 342.033 68.694, 341.676 68.884, 335.960 74.540 C 332.682 77.783, 330 80.685, 330 80.989 C 330 81.944, 343.375 89.820, 346.178 90.516 C 347.651 90.881, 349.727 90.904, 350.792 90.566 C 351.857 90.228, 361.219 83.213, 371.597 74.976 C 381.975 66.739, 390.703 60, 390.992 60 C 391.281 60, 401.298 69.788, 413.252 81.752 L 434.987 103.504 419.494 122.879 C 406.549 139.067, 404 142.797, 404 145.553 C 404 147.581, 406.281 153.408, 409.923 160.684 C 413.181 167.192, 417.742 178.281, 420.060 185.325 C 423.125 194.643, 424.894 198.539, 426.550 199.625 C 427.994 200.571, 436.641 202.014, 450.164 203.566 C 461.899 204.912, 472.962 206.256, 474.750 206.552 L 478 207.091 478 237.932 L 478 268.773 473.750 269.362 C 471.413 269.685, 460.725 270.917, 450 272.098 C 439.275 273.279, 429.511 274.620, 428.302 275.078 C 425.125 276.282, 423.520 279.256, 419.981 290.500 C 418.250 296, 413.946 306.466, 410.417 313.757 C 406.566 321.712, 404.001 328.311, 404.002 330.257 C 404.003 332.941, 406.685 336.853, 419.553 352.941 L 435.102 372.382 412.523 394.977 C 387.218 420.300, 386.332 421.676, 391.428 427.732 C 394.664 431.578, 398.848 432.658, 402.677 430.637 C 404.230 429.817, 417.088 417.506, 431.250 403.279 C 456.413 378.002, 457 377.319, 457 373.365 C 457 369.639, 455.699 367.684, 440.554 348.643 L 424.108 327.967 428.057 319.734 C 430.229 315.205, 433.532 307.225, 435.397 302 L 438.787 292.500 462.143 289.913 C 491.747 286.635, 492.469 286.490, 494.957 283.328 C 496.942 280.804, 497 279.518, 497 238.088 C 497 192.393, 497.031 192.693, 491.955 189.976 C 490.886 189.404, 478.476 187.617, 464.376 186.005 C 450.277 184.393, 438.683 182.945, 438.612 182.787 C 438.541 182.629, 437.423 179.350, 436.128 175.500 C 434.832 171.650, 431.575 163.833, 428.889 158.129 L 424.007 147.757 440.501 127.129 C 455.606 108.237, 456.995 106.165, 456.998 102.518 C 457 98.627, 456.294 97.830, 426.232 67.768 C 390.589 32.125, 393.390 33.758, 382.310 42.170 M 292.978 117.625 C 287.671 123.040, 286.153 125.100, 287.750 124.721 C 288.988 124.428, 290 124.513, 290 124.911 C 290 125.309, 292.382 126.386, 295.294 127.304 C 303.342 129.841, 317.657 137.173, 325.715 142.887 C 350.977 160.799, 367.665 186.288, 374.238 217 C 376.684 228.429, 377.098 249.667, 375.096 261 C 371.988 278.591, 363.485 298.548, 353.368 311.996 C 346.956 320.520, 346.004 322.569, 346.719 326.312 C 347.386 329.797, 352.379 334, 355.854 334 C 359.767 334, 362.472 331.724, 368.963 322.969 C 380.165 307.861, 388.805 288.105, 393.176 267.604 C 396.262 253.131, 396.236 228.751, 393.118 214.113 C 383.699 169.885, 356.174 134.471, 316.500 115.538 C 311.550 113.175, 305.915 110.962, 303.978 110.619 C 300.622 110.024, 300.102 110.355, 292.978 117.625 M 213.389 197.222 L 178.217 232.500 178.082 240 C 177.376 279.183, 204.807 320.678, 238.722 331.729 C 269.832 341.866, 304.163 323.629, 322.924 287 C 337.420 258.699, 338.649 231.336, 326.541 206.500 C 318.579 190.170, 307.054 178.645, 290.500 170.461 C 278.983 164.767, 272.019 162.986, 259.031 162.409 L 248.562 161.944 213.389 197.222 M 249.500 181.561 C 248.400 181.813, 245.082 182.510, 242.127 183.109 C 236.301 184.290, 221 191.557, 221 193.142 C 221 193.679, 220.597 193.869, 220.105 193.565 C 219.612 193.260, 218.949 193.691, 218.630 194.521 C 218.312 195.351, 216.915 196.462, 215.526 196.990 C 214.137 197.518, 213 198.472, 213 199.109 C 213 199.746, 211.762 201.332, 210.250 202.632 C 208.738 203.933, 207.950 205.005, 208.500 205.014 C 209.167 205.025, 209.167 205.276, 208.500 205.765 C 206.895 206.945, 200.825 219.976, 199.446 225.205 L 198.181 230 203.800 230 C 212.630 230, 234.570 227.044, 244.571 224.507 C 255.758 221.669, 262.684 218.251, 267.878 213.005 C 270.059 210.802, 272.491 209, 273.283 209 C 274.075 209, 277.624 210.315, 281.170 211.923 C 289.684 215.784, 298.508 218, 305.363 218 C 311.871 218, 311.869 218.046, 305.762 208.294 C 298.756 197.105, 286.877 187.976, 274.135 183.987 C 267.954 182.052, 253.547 180.633, 249.500 181.561 M 270.537 234.975 C 261.248 241.564, 226.634 249, 205.248 249 C 200.751 249, 198.782 249.404, 198.398 250.405 C 198.102 251.178, 198.622 254.852, 199.554 258.570 C 208.439 293.998, 236.244 318.872, 262.500 314.880 C 288.521 310.924, 312.780 279.057, 315.611 245.113 L 316.246 237.500 303.373 237.474 C 291.968 237.451, 289.614 237.137, 282.729 234.724 C 278.455 233.226, 274.855 232.037, 274.729 232.082 C 274.603 232.127, 272.717 233.429, 270.537 234.975 M 132.569 277.931 C 128.764 281.765, 125.210 284.630, 124.671 284.297 C 124.061 283.920, 124.023 284.221, 124.569 285.095 C 125.052 285.868, 125.485 286.950, 125.531 287.500 C 126.034 293.526, 139.080 317.395, 147.670 328.007 C 154.745 336.748, 160.019 338.072, 165.586 332.505 C 169.792 328.299, 168.926 324.499, 161.494 314.529 C 151.821 301.555, 145.644 289.432, 139.849 272.048 C 139.650 271.450, 136.373 274.097, 132.569 277.931 M 93.474 317.027 C 90.274 320.260, 87.246 322.652, 86.745 322.343 C 86.245 322.033, 86.543 323.150, 87.409 324.824 C 88.951 327.806, 88.908 327.967, 85.310 332.684 C 83.290 335.333, 81.037 338.101, 80.303 338.837 C 79.570 339.572, 77.739 341.813, 76.235 343.818 C 74.731 345.822, 69.563 352.343, 64.750 358.308 C 51.431 374.816, 50.212 371.589, 81.750 403.313 C 95.937 417.584, 108.959 429.846, 110.750 430.621 C 113.563 431.838, 114.475 431.828, 117.536 430.549 C 122.024 428.674, 124.511 423.503, 122.946 419.298 C 122.373 417.759, 112.011 406.581, 99.918 394.458 L 77.931 372.415 90.612 356.458 C 111.974 329.574, 111.387 331.008, 105.455 320.216 C 99.946 310.194, 100.174 310.255, 93.474 317.027 M 201.500 334.045 C 177.670 339.998, 156.855 357.034, 145.962 379.500 C 137.374 397.215, 137.667 394.730, 137.260 453.137 L 136.901 504.773 139.364 507.637 L 141.827 510.500 256.500 510.500 L 371.173 510.500 373.587 507.694 L 376 504.888 376 457.128 C 376 428.174, 375.586 407.031, 374.949 403.434 C 368.696 368.130, 343.376 341.450, 308.537 333.455 C 300.827 331.686, 296.105 332.121, 293.656 334.827 C 292.766 335.811, 284.148 356.584, 274.504 380.989 C 264.861 405.395, 256.798 425.536, 256.587 425.747 C 256.375 425.958, 254.300 421.264, 251.975 415.315 C 231.398 362.678, 220.607 336.214, 219.091 334.675 C 216.454 331.996, 210.547 331.785, 201.500 334.045 M 198.307 357.482 C 182.192 363.685, 167.439 377.479, 161.098 392.271 C 156.477 403.051, 156 408.590, 156 451.447 L 156 492 256.558 492 L 357.116 492 356.808 448.750 L 356.500 405.500 353.748 397.722 C 348.520 382.950, 338.611 370.747, 325.312 362.706 C 319.378 359.118, 306.532 354.135, 305.605 355.061 C 305.323 355.344, 296.050 378.508, 284.999 406.537 C 270.499 443.314, 264.207 458.126, 262.397 459.750 C 259.277 462.549, 254.149 462.692, 250.820 460.073 C 248.983 458.628, 243.273 445.231, 228.019 406.573 C 212.936 368.349, 207.259 355.013, 206.084 355.049 C 205.213 355.076, 201.713 356.171, 198.307 357.482" stroke="none" fill="#6e12a3" fill-rule="evenodd"/></svg>